<?xml version="1.0" standalone="no"?>
<!DOCTYPE svg PUBLIC "-//W3C//DTD SVG 20010904//EN"
 "http://www.w3.org/TR/2001/REC-SVG-20010904/DTD/svg10.dtd">
<svg version="1.0" xmlns="http://www.w3.org/2000/svg"
 width="200.000000pt" height="112.000000pt" viewBox="0 0 200.000000 112.000000"
 preserveAspectRatio="xMidYMid meet">

<g transform="translate(0.000000,112.000000) scale(0.100000,-0.100000)"
fill="#000000" stroke="none">
<path d="M184 786 c-68 -30 -99 -106 -92 -227 5 -84 24 -128 71 -163 24 -18
42 -21 110 -20 45 1 94 6 110 12 l27 12 0 110 0 110 -71 0 -70 0 3 -37 c2 -31
7 -39 26 -41 19 -3 22 -9 22 -48 l0 -44 -44 0 c-73 0 -92 39 -84 165 5 81 24
105 83 105 23 0 56 -5 74 -11 18 -6 34 -10 36 -8 2 2 6 20 10 40 6 34 5 37
-26 48 -43 15 -147 13 -185 -3z"/>
<path d="M611 784 c-56 -29 -84 -83 -89 -172 -10 -171 54 -251 192 -239 108
10 148 62 154 202 3 79 1 95 -20 134 -33 64 -66 84 -141 88 -44 3 -72 -1 -96
-13z m145 -99 c26 -64 15 -206 -19 -227 -21 -13 -75 -9 -91 7 -21 21 -30 75
-24 149 8 90 19 106 74 106 42 0 46 -2 60 -35z"/>
<path d="M940 785 c0 -12 13 -15 55 -15 l55 0 2 -197 c4 -266 22 -266 26 0 l2
197 60 0 c49 0 58 3 54 15 -5 12 -29 15 -130 15 -104 0 -124 -2 -124 -15z"/>
<path d="M1322 588 l3 -213 113 -2 c90 -1 112 1 112 12 0 11 -22 15 -97 17
l-98 3 0 80 0 80 70 3 c82 3 115 9 115 22 0 5 -42 11 -92 12 l-93 3 0 80 0 80
98 3 c77 2 97 6 97 17 0 12 -21 15 -115 15 l-115 0 2 -212z"/>
<path d="M1698 608 c-2 -106 -2 -203 0 -215 3 -22 7 -23 113 -23 90 0 109 3
109 15 0 12 -17 15 -95 15 l-95 0 0 200 c0 169 -2 200 -15 200 -12 0 -15 -32
-17 -192z"/>
</g>
</svg>
