<?xml version="1.0" standalone="no"?>
<!DOCTYPE svg PUBLIC "-//W3C//DTD SVG 20010904//EN"
 "http://www.w3.org/TR/2001/REC-SVG-20010904/DTD/svg10.dtd">
<svg version="1.0" xmlns="http://www.w3.org/2000/svg"
 width="800.000000pt" height="800.000000pt" viewBox="0 0 800.000000 800.000000"
 preserveAspectRatio="xMidYMid meet">

<g transform="translate(0.000000,800.000000) scale(0.100000,-0.100000)"
fill="#000000" stroke="none">
<path d="M1065 5275 c-69 -15 -212 -68 -264 -98 -300 -174 -481 -477 -481
-806 0 -242 84 -448 254 -628 176 -186 390 -285 652 -299 183 -11 386 41 530
135 127 84 250 230 302 361 45 115 63 220 60 362 l-3 133 -422 3 -423 2 0
-120 0 -120 306 0 307 0 -7 -42 c-9 -58 -46 -169 -63 -189 -7 -8 -13 -20 -13
-25 0 -14 -97 -115 -140 -146 -62 -45 -134 -77 -220 -99 -114 -29 -291 -24
-395 11 -230 78 -396 260 -453 495 -22 92 -21 249 2 335 51 194 189 366 358
448 140 68 287 87 446 57 98 -19 165 -48 256 -110 l69 -47 81 81 81 81 -34 28
c-127 101 -264 169 -401 198 -82 17 -304 17 -385 -1z"/>
<path d="M2705 4615 c-216 -48 -381 -207 -442 -425 -22 -77 -21 -239 2 -315
23 -80 76 -179 125 -237 55 -63 176 -143 258 -169 96 -30 242 -37 335 -14 379
91 565 499 391 861 -42 87 -158 201 -256 248 -128 63 -276 82 -413 51z m256
-231 c41 -13 111 -62 147 -104 7 -8 28 -44 45 -80 30 -60 32 -73 32 -165 0
-89 -4 -107 -29 -162 -29 -65 -106 -147 -162 -175 -164 -84 -371 -13 -454 156
-57 114 -59 236 -7 350 76 165 247 237 428 180z"/>
<path d="M5320 4615 c-230 -52 -419 -261 -451 -501 -38 -289 135 -561 413
-649 93 -29 180 -32 259 -9 65 19 146 63 178 98 14 14 28 26 33 26 4 0 8 -51
8 -112 0 -104 -2 -118 -29 -173 -34 -72 -78 -118 -140 -148 -38 -18 -63 -22
-151 -22 -90 0 -111 3 -147 23 -58 31 -107 75 -140 127 -15 25 -34 45 -40 45
-7 0 -33 -9 -58 -20 -25 -11 -65 -29 -90 -40 -25 -11 -45 -25 -45 -31 0 -16
64 -108 108 -156 154 -164 422 -216 644 -126 156 63 245 169 301 358 20 67 21
97 24 678 l4 607 -121 0 -120 0 0 -50 c0 -27 -4 -50 -8 -50 -5 0 -19 11 -32
25 -83 88 -258 132 -400 100z m285 -245 c246 -141 238 -554 -13 -677 -76 -37
-201 -40 -274 -6 -66 30 -139 102 -174 170 -27 54 -29 66 -29 173 0 105 2 120
28 175 65 140 184 210 336 200 58 -4 85 -11 126 -35z"/>
<path d="M6960 4612 c-222 -58 -380 -246 -411 -490 -27 -210 38 -395 187 -531
181 -165 455 -199 679 -82 75 38 210 161 203 183 -2 7 -43 40 -91 72 l-86 59
-65 -61 c-103 -96 -217 -123 -345 -83 -71 22 -120 57 -162 114 -33 46 -36 65
-11 74 16 6 439 180 552 227 30 13 91 38 135 56 44 18 84 37 88 41 5 4 -12 50
-37 103 -127 265 -372 387 -636 318z m249 -218 c56 -16 135 -83 129 -110 -3
-14 -512 -234 -540 -234 -12 0 -6 65 12 129 15 57 65 127 117 166 85 62 181
79 282 49z"/>
</g>
</svg>
