<?xml version="1.0" standalone="no"?>
<!DOCTYPE svg PUBLIC "-//W3C//DTD SVG 20010904//EN"
 "http://www.w3.org/TR/2001/REC-SVG-20010904/DTD/svg10.dtd">
<svg version="1.0" xmlns="http://www.w3.org/2000/svg"
 width="1200.000000pt" height="320.000000pt" viewBox="0 0 1200.000000 320.000000"
 preserveAspectRatio="xMidYMid meet">

<g transform="translate(0.000000,320.000000) scale(0.100000,-0.100000)"
fill="#000000" stroke="none">
<path d="M50 2745 l0 -415 238 -2 237 -3 3 -712 2 -713 -240 0 -240 0 2 -417
3 -418 1068 -3 1067 -2 0 420 0 420 -235 0 -235 0 0 715 0 715 235 0 235 0 0
415 0 415 -1070 0 -1070 0 0 -415z"/>
<path d="M3830 2873 c0 -184 7 -227 47 -274 73 -87 244 -94 326 -14 48 47 57
90 57 284 l0 171 -50 0 -50 0 0 -142 c0 -79 -5 -161 -10 -183 -12 -53 -50 -85
-101 -85 -92 0 -103 23 -109 235 l-5 170 -52 3 -53 3 0 -168z"/>
<path d="M4587 3033 c-4 -3 -7 -116 -7 -250 l0 -243 55 0 54 0 3 154 3 153
115 -151 115 -151 48 -3 47 -3 0 250 0 251 -50 0 -49 0 -3 -156 -3 -155 -118
155 -119 156 -42 0 c-24 0 -46 -3 -49 -7z"/>
<path d="M5350 2791 l0 -251 55 0 55 0 -2 248 -3 247 -52 3 -53 3 0 -250z"/>
<path d="M5740 3028 c0 -7 44 -122 97 -256 l98 -243 49 3 48 3 94 235 c52 129
97 243 100 253 5 16 0 18 -52 15 l-59 -3 -64 -173 c-35 -94 -67 -170 -69 -167
-3 3 -33 80 -67 173 l-62 167 -57 3 c-41 2 -56 -1 -56 -10z"/>
<path d="M6507 3033 c-4 -3 -7 -116 -7 -250 l0 -243 190 0 190 0 0 45 0 45
-135 0 -135 0 0 55 0 55 121 0 120 0 -3 48 -3 47 -117 3 -118 3 0 49 0 50 135
0 135 0 0 50 0 50 -183 0 c-101 0 -187 -3 -190 -7z"/>
<path d="M7190 2791 l0 -251 55 0 55 0 0 81 0 80 42 -3 c41 -3 45 -6 96 -80
l53 -78 60 0 c32 0 59 2 59 5 0 3 -25 42 -56 86 -31 44 -55 81 -53 83 2 1 17
10 32 20 68 42 91 158 44 227 -38 58 -79 70 -242 77 l-145 5 0 -252z m279 125
c31 -28 28 -79 -5 -105 -21 -17 -41 -21 -95 -21 l-69 0 0 76 0 76 74 -4 c55
-2 80 -8 95 -22z"/>
<path d="M7983 3028 c-54 -18 -86 -60 -91 -121 -8 -95 19 -125 151 -166 37
-11 76 -25 87 -31 24 -13 26 -52 5 -70 -26 -22 -102 -14 -158 15 l-51 26 -25
-33 c-14 -18 -26 -37 -26 -42 0 -6 27 -24 59 -41 52 -26 70 -30 140 -30 67 0
87 4 117 23 63 39 88 127 54 192 -18 35 -63 60 -162 89 -78 23 -102 46 -84 80
20 37 79 37 153 0 l37 -19 26 33 c14 19 25 39 25 45 0 5 -21 21 -47 33 -54 26
-158 35 -210 17z"/>
<path d="M8560 2791 l0 -251 55 0 55 0 -2 248 -3 247 -52 3 -53 3 0 -250z"/>
<path d="M8950 2985 l0 -55 75 0 75 0 0 -195 0 -195 55 0 55 0 0 195 0 194 73
3 72 3 0 50 0 50 -202 3 -203 2 0 -55z"/>
<path d="M9610 3036 c0 -2 43 -72 95 -154 l95 -149 0 -97 0 -96 55 0 55 0 0
99 0 99 90 140 c50 77 90 145 90 152 0 7 -19 10 -57 8 l-57 -3 -56 -94 c-31
-51 -60 -93 -65 -93 -5 0 -34 42 -65 93 l-56 94 -62 3 c-34 2 -62 1 -62 -2z"/>
<path d="M10884 3017 c-150 -72 -194 -272 -86 -397 48 -57 103 -82 187 -88 88
-5 157 21 211 80 49 54 67 101 67 173 1 72 -25 136 -73 182 -50 49 -96 67
-180 71 -63 2 -83 -1 -126 -21z m194 -97 c47 -29 72 -76 72 -135 0 -163 -214
-218 -280 -72 -37 80 -17 160 49 204 44 29 113 31 159 3z"/>
<path d="M11567 3033 c-4 -3 -7 -116 -7 -250 l0 -243 55 0 55 0 0 95 0 95 120
0 120 0 0 50 0 50 -121 0 -120 0 3 53 3 52 133 3 132 3 0 49 0 50 -183 0
c-101 0 -187 -3 -190 -7z"/>
<path d="M9292 2165 c-179 -39 -359 -179 -440 -342 -57 -115 -76 -209 -69
-342 8 -175 69 -311 194 -433 233 -228 620 -252 898 -54 199 143 300 406 251
656 -39 199 -171 374 -347 459 -48 23 -117 48 -155 56 -85 18 -248 18 -332 0z
m332 -279 c154 -76 241 -250 215 -432 -19 -132 -97 -242 -214 -300 -55 -26
-69 -29 -165 -29 -96 0 -110 3 -165 29 -242 119 -300 460 -112 654 85 88 150
113 287 109 82 -2 103 -6 154 -31z"/>
<path d="M11325 2170 c-101 -22 -159 -52 -227 -120 -59 -59 -69 -75 -88 -139
-43 -139 -11 -294 76 -370 56 -50 143 -88 310 -136 167 -49 247 -83 264 -114
5 -11 10 -38 10 -61 0 -158 -293 -160 -513 -4 -26 19 -49 34 -51 34 -5 0 -148
-168 -159 -187 -11 -17 118 -105 208 -142 115 -48 196 -64 325 -65 220 0 366
75 436 227 26 56 29 72 29 167 0 90 -3 112 -23 152 -54 110 -156 172 -391 239
-212 59 -260 89 -261 156 0 50 20 81 67 104 86 41 233 15 368 -66 68 -42 58
-47 144 79 58 85 60 90 44 108 -25 27 -188 105 -258 123 -71 19 -254 28 -310
15z"/>
<path d="M3870 1520 l0 -640 140 0 140 0 0 640 0 640 -140 0 -140 0 0 -640z"/>
<path d="M4490 1520 l0 -640 460 0 460 0 0 130 0 130 -320 0 -320 0 0 510 0
510 -140 0 -140 0 0 -640z"/>
<path d="M5620 1520 l0 -640 460 0 461 0 -3 127 -3 128 -317 3 -318 2 0 510 0
510 -140 0 -140 0 0 -640z"/>
<path d="M6750 1520 l0 -640 140 0 140 0 0 640 0 640 -140 0 -140 0 0 -640z"/>
<path d="M7370 1520 l0 -640 140 0 140 0 2 404 3 404 306 -402 306 -401 121
-3 122 -3 0 641 0 640 -140 0 -140 0 -2 -390 -3 -391 -295 388 -295 388 -133
3 -132 3 0 -641z"/>
<path d="M10410 1520 l0 -640 140 0 140 0 0 640 0 640 -140 0 -140 0 0 -640z"/>
<path d="M3871 403 c0 -122 12 -167 51 -196 37 -27 116 -34 157 -13 58 31 71
66 71 199 l0 118 -32 -3 -33 -3 -3 -112 c-3 -107 -4 -113 -29 -133 -34 -26
-59 -25 -88 5 -24 23 -25 31 -25 135 l0 110 -35 0 -35 0 1 -107z"/>
<path d="M4420 346 l0 -167 33 3 c31 3 32 4 35 56 3 49 4 52 30 52 21 -1 35
-12 62 -53 31 -45 40 -52 73 -55 20 -2 37 -1 37 3 0 3 -16 29 -35 58 l-35 51
25 21 c33 26 46 74 34 120 -14 50 -53 67 -166 73 l-93 5 0 -167z m176 86 c19
-13 23 -39 8 -61 -12 -17 -26 -21 -65 -21 l-49 0 0 45 0 45 48 0 c26 0 52 -4
58 -8z"/>
<path d="M4944 497 c-2 -7 -3 -80 -2 -162 l3 -150 55 -3 c143 -9 214 23 214
93 0 29 -6 43 -26 59 -26 21 -27 21 -7 45 39 48 13 105 -56 121 -61 14 -175
12 -181 -3z m181 -87 c0 -23 -4 -25 -57 -28 l-58 -3 0 31 0 31 58 -3 c53 -3
57 -5 57 -28z m9 -103 c13 -10 16 -20 12 -35 -7 -20 -14 -22 -72 -22 l-64 0 0
35 0 35 53 0 c29 0 61 -6 71 -13z"/>
<path d="M5567 478 c-88 -207 -117 -278 -117 -287 0 -6 14 -11 31 -11 26 0 33
5 46 40 l16 40 67 0 67 0 18 -40 c16 -35 22 -40 52 -40 18 0 33 3 32 8 0 4
-30 77 -67 162 -65 151 -68 155 -99 158 -28 3 -34 -1 -46 -30z m77 -136 c7
-20 4 -22 -33 -22 -23 0 -41 2 -41 4 0 2 9 26 21 53 l21 48 13 -31 c7 -17 16
-40 19 -52z"/>
<path d="M6030 345 l0 -165 30 0 30 0 0 100 c0 55 3 100 8 100 4 -1 41 -46 82
-100 63 -84 79 -100 103 -100 l27 0 0 166 0 165 -32 -3 -33 -3 -5 -95 -5 -94
-74 97 c-63 83 -78 97 -102 97 l-29 0 0 -165z"/>
<path d="M6627 352 c-37 -87 -67 -161 -67 -165 0 -4 13 -7 30 -7 24 0 33 7 50
40 l20 40 65 0 65 0 17 -37 c15 -31 24 -39 51 -41 17 -2 32 0 32 5 0 4 -30 79
-66 166 -66 156 -67 157 -99 157 -31 0 -32 -1 -98 -158z m122 15 l20 -47 -44
0 -44 0 21 50 c11 28 22 49 24 48 1 -2 12 -25 23 -51z"/>
<path d="M7575 496 c-61 -27 -95 -85 -95 -160 0 -47 27 -96 71 -129 52 -38
164 -32 203 12 15 17 15 20 -3 42 -18 23 -20 23 -39 6 -11 -10 -36 -20 -55
-24 -32 -5 -41 -1 -72 30 -48 48 -49 95 -1 143 39 39 67 43 112 15 l32 -19 22
23 c26 28 22 37 -24 59 -41 19 -110 20 -151 2z"/>
<path d="M8024 497 c-2 -7 -3 -80 -2 -162 l3 -150 33 -3 32 -3 0 65 0 66 70 0
70 0 0 -66 0 -65 33 3 32 3 0 160 0 160 -32 3 -33 3 0 -65 0 -66 -70 0 -70 0
0 65 0 65 -30 0 c-17 0 -33 -6 -36 -13z"/>
<path d="M8677 503 c-6 -10 -113 -262 -127 -298 -9 -24 -8 -25 25 -25 32 0 37
4 51 40 l16 40 68 0 68 0 16 -40 c14 -36 19 -40 51 -40 19 0 35 1 35 3 0 2
-30 75 -68 163 -65 154 -69 159 -99 162 -17 2 -33 -1 -36 -5z m51 -120 c5 -16
13 -36 17 -45 6 -15 1 -18 -34 -18 -23 0 -41 2 -41 5 0 14 33 85 40 85 4 0 13
-12 18 -27z"/>
<path d="M9124 497 c-2 -7 -3 -80 -2 -162 l3 -150 32 -3 32 -3 3 107 3 108 44
-67 c24 -37 45 -67 46 -67 1 0 22 30 46 67 l44 67 3 -108 3 -107 32 3 32 3 0
160 0 160 -36 3 c-35 3 -37 1 -79 -67 -23 -39 -44 -71 -45 -71 -1 0 -21 32
-44 70 -39 65 -44 70 -77 70 -19 0 -37 -6 -40 -13z"/>
<path d="M9720 346 l0 -167 33 3 c31 3 32 5 35 51 l3 47 42 0 c107 0 167 84
122 170 -22 42 -47 52 -147 58 l-88 5 0 -167z m168 82 c35 -35 -5 -88 -65 -88
-33 0 -33 0 -33 50 l0 50 43 0 c24 0 48 -5 55 -12z"/>
<path d="M10291 491 c-12 -21 -131 -302 -131 -307 0 -2 15 -4 34 -4 30 0 36 4
50 40 l16 40 68 0 69 0 16 -40 c13 -35 20 -40 46 -40 19 0 31 5 31 13 0 7 -29
80 -64 162 -61 143 -66 150 -95 153 -21 2 -33 -2 -40 -17z m62 -128 l17 -43
-40 0 c-22 0 -40 3 -40 7 0 20 34 93 40 86 4 -4 14 -27 23 -50z"/>
<path d="M10750 345 l0 -165 30 0 30 0 0 165 0 165 -30 0 -30 0 0 -165z"/>
<path d="M11180 499 c-64 -27 -100 -85 -100 -161 0 -71 32 -120 95 -143 53
-21 129 -16 175 12 29 17 30 20 30 90 l0 73 -70 0 -70 0 0 -30 c0 -28 3 -30
36 -30 33 0 35 -2 32 -27 -6 -52 -85 -57 -134 -8 -42 43 -27 133 27 161 36 18
57 18 93 -1 28 -15 31 -15 54 9 l24 24 -27 18 c-32 21 -128 29 -165 13z"/>
<path d="M11644 497 c-2 -7 -3 -80 -2 -162 l3 -150 32 -3 32 -3 3 103 3 103
79 -102 c68 -88 83 -103 108 -103 l28 0 0 165 0 165 -35 0 -34 0 -3 -99 -3
-100 -75 100 c-63 84 -79 99 -103 99 -15 0 -30 -6 -33 -13z"/>
<path d="M7112 328 l3 -33 68 -3 67 -3 0 36 0 35 -71 0 -70 0 3 -32z"/>
</g>
</svg>
