<?xml version="1.0" standalone="no"?>
<!DOCTYPE svg PUBLIC "-//W3C//DTD SVG 20010904//EN"
 "http://www.w3.org/TR/2001/REC-SVG-20010904/DTD/svg10.dtd">
<svg version="1.0" xmlns="http://www.w3.org/2000/svg"
 width="800.000000pt" height="839.000000pt" viewBox="0 0 800.000000 839.000000"
 preserveAspectRatio="xMidYMid meet">

<g transform="translate(0.000000,839.000000) scale(0.100000,-0.100000)"
fill="#000000" stroke="none">
<path d="M954 8283 c-4 -43 -8 -773 -7 -1623 l0 -1545 27 -355 c55 -721 102
-949 259 -1265 170 -342 481 -681 879 -958 410 -286 1015 -565 1589 -732 107
-32 211 -66 231 -76 49 -25 79 -24 181 6 127 36 666 235 846 311 564 239 1038
541 1377 879 335 333 519 662 608 1084 34 160 60 364 87 691 26 300 26 331 22
2433 l-3 1227 -3044 0 -3044 0 -8 -77z m4669 -2275 c3 -1434 3 -1448 -11
-1480 -15 -36 -79 -72 -187 -103 -143 -42 -272 -55 -555 -55 -370 -1 -505 -17
-629 -78 -69 -34 -144 -101 -179 -161 l-27 -46 -7 430 c-19 1086 -10 1945 22
2135 21 118 119 263 210 310 113 58 312 71 668 46 191 -14 252 -15 330 -6 103
13 218 46 292 84 25 13 51 24 58 25 9 1 13 -227 15 -1101z m-3153 1047 c168
-70 295 -79 686 -49 319 24 482 8 597 -59 88 -52 158 -157 194 -289 20 -72 19
-36 16 -1582 l-3 -969 -31 46 c-60 90 -156 154 -294 194 -52 14 -113 17 -450
18 -244 1 -418 6 -465 14 -225 35 -318 78 -337 153 -14 54 -3 2560 10 2555 7
-3 41 -17 77 -32z m-150 -29 c0 -3 -5 -17 -11 -33 -14 -34 -13 -1990 1 -2244
5 -94 5 -205 0 -257 -8 -82 -13 -101 -54 -175 -58 -108 -157 -256 -186 -282
l-23 -20 9 95 c4 52 7 671 5 1375 l-3 1280 38 20 c66 34 159 135 179 194 9 29
23 51 31 51 8 0 14 -2 14 -4z m3460 -110 c24 -32 70 -78 101 -100 l57 -41 4
-1345 c2 -808 7 -1353 12 -1365 9 -18 8 -19 -9 -5 -28 23 -185 239 -214 294
l-25 49 -1 1309 c0 1167 2 1307 15 1286 8 -12 35 -49 60 -82z m668 -116 c10 0
28 9 42 20 14 11 29 20 33 20 17 0 -10 -485 -29 -535 -6 -16 -89 -22 -109 -7
-6 4 -9 107 -7 284 l4 278 25 -30 c14 -17 32 -30 41 -30z m-4830 -162 c-4
-101 -3 -223 1 -273 4 -49 6 -92 4 -94 -2 -3 -30 -7 -62 -9 l-59 -4 -6 78 c-3
44 -11 164 -17 269 -6 104 -13 193 -16 197 -9 15 9 8 42 -18 37 -28 53 -25 89
15 11 12 21 21 24 21 3 0 3 -82 0 -182z m4735 -409 c120 -12 127 -14 127 -34
0 -35 -37 -73 -83 -86 -27 -7 -75 -9 -134 -4 l-93 7 0 70 0 70 28 -6 c15 -3
84 -11 155 -17z m-4513 -63 c0 -76 0 -76 -133 -76 -113 0 -187 34 -187 85 0
21 6 23 93 29 50 4 110 11 132 16 22 4 52 8 68 9 27 1 27 0 27 -63z m-211
-1422 c1 -118 0 -122 -21 -128 -32 -8 -71 -7 -86 3 -9 5 -20 81 -36 237 -13
126 -22 230 -21 232 1 1 19 -11 40 -28 40 -32 47 -31 85 14 l25 30 6 -120 c4
-65 7 -174 8 -240z m4807 226 c5 0 25 11 44 25 18 14 35 23 37 22 3 -4 -35
-413 -42 -444 -5 -21 -11 -23 -65 -23 l-60 0 6 218 c3 119 8 228 10 242 l6 25
26 -33 c15 -18 32 -32 38 -32z m-4607 -467 c-4 -32 -8 -65 -8 -75 -1 -25 -205
-21 -245 5 -28 19 -61 81 -51 96 3 5 57 12 120 16 63 4 129 11 147 15 18 4 36
6 39 4 3 -2 2 -29 -2 -61z m4506 -22 c110 -5 120 -8 123 -26 4 -29 -34 -84
-65 -96 -15 -5 -75 -11 -135 -12 l-108 -2 0 78 0 79 32 -8 c18 -3 87 -9 153
-13z m-546 -389 l102 -153 -68 8 c-79 9 -140 9 -777 -4 -378 -7 -499 -7 -570
3 -147 21 -166 19 -213 -21 -41 -35 -103 -66 -158 -79 -16 -4 -38 -9 -47 -12
-15 -4 -18 1 -18 29 0 43 25 129 56 190 53 103 144 170 280 204 60 15 126 17
484 18 467 1 476 2 650 82 l85 39 46 -75 c25 -42 91 -145 148 -229z m-3297
249 c194 -79 225 -81 813 -73 183 3 245 1 303 -12 199 -44 319 -173 347 -375
7 -49 6 -53 -11 -47 -11 3 -32 8 -49 12 -54 13 -130 51 -169 84 l-38 33 -46
-16 c-80 -29 -326 -39 -639 -27 -393 14 -753 13 -833 -4 -36 -8 -66 -13 -67
-12 -1 1 45 70 101 154 57 84 122 191 146 238 23 46 43 84 44 84 2 0 46 -18
98 -39z m1397 -597 c117 -26 223 -16 318 31 41 20 77 35 79 32 10 -10 -37
-147 -59 -172 -70 -79 -411 -70 -473 13 -7 9 -18 42 -24 72 -6 30 -14 63 -16
72 -5 15 2 14 48 -7 29 -14 86 -32 127 -41z"/>
<path d="M5347 6500 c-19 -23 -37 -53 -40 -68 -7 -34 13 -80 47 -111 27 -26
33 -59 16 -92 -14 -25 -24 -24 -100 12 -124 58 -182 122 -201 221 l-12 59 -23
-22 c-26 -24 -44 -75 -44 -123 0 -61 24 -110 81 -168 l57 -58 -35 -21 c-55
-34 -77 -94 -68 -184 6 -72 6 -72 -20 -79 -30 -8 -44 -34 -24 -47 22 -14 127
-10 158 6 51 26 55 79 11 145 -16 25 -30 58 -30 73 0 26 25 87 36 87 12 0 152
-75 182 -98 63 -48 85 -124 57 -194 -5 -14 -2 -18 14 -18 27 0 70 64 87 129
21 82 0 137 -76 197 l-39 31 36 34 c47 45 75 107 66 149 -3 19 -22 48 -44 69
-30 27 -39 44 -39 68 0 47 -14 48 -53 3z"/>
<path d="M4662 6468 c-15 -60 -15 -130 0 -163 15 -33 56 -55 104 -55 33 0 36
-2 29 -22 -3 -13 -9 -102 -12 -198 -4 -145 -2 -178 10 -195 13 -17 17 -17 32
-5 9 7 25 31 36 53 19 37 19 41 5 85 -11 32 -16 82 -16 166 l1 121 32 20 c42
26 48 71 15 109 -19 22 -36 28 -92 35 -70 8 -88 19 -122 77 -9 16 -12 12 -22
-28z"/>
<path d="M4174 6475 c-11 -42 2 -142 23 -177 26 -45 69 -58 169 -51 146 10
159 -12 157 -254 -2 -95 0 -173 3 -173 19 0 46 26 67 65 24 43 25 48 11 80 -8
19 -20 112 -28 207 -8 95 -17 180 -20 189 -4 8 -21 23 -38 33 -26 16 -44 18
-134 12 -118 -8 -131 -4 -174 55 l-29 41 -7 -27z"/>
<path d="M5171 5498 c-58 -100 -54 -144 17 -220 36 -38 50 -62 58 -102 l11
-51 28 59 c15 32 30 79 33 104 5 44 4 46 -52 97 -56 52 -57 54 -55 104 2 28 0
53 -3 57 -4 3 -20 -18 -37 -48z"/>
<path d="M4566 5465 c-42 -96 -28 -188 34 -220 l29 -15 -18 -43 c-28 -67 -41
-130 -56 -276 -7 -75 -12 -137 -11 -138 5 -6 486 -7 486 -1 0 4 10 74 21 155
48 337 -9 456 -210 440 -76 -6 -187 8 -215 27 -12 8 -25 33 -31 62 l-11 49
-18 -40z m351 -268 c52 -27 67 -67 71 -190 l4 -108 -38 8 c-50 10 -238 10
-288 0 l-39 -8 6 123 c3 68 11 140 17 162 l12 38 111 -4 c79 -3 122 -9 144
-21z"/>
<path d="M2554 6508 c-60 -69 -53 -159 17 -223 l41 -37 -44 -61 -43 -62 0
-140 c0 -77 -4 -152 -9 -167 -12 -40 7 -35 42 10 54 69 57 79 57 213 l0 126
47 71 c54 80 40 78 152 28 144 -64 186 -141 140 -257 -21 -52 -41 -59 -164
-59 l-98 0 -15 -37 c-8 -21 -19 -54 -24 -73 l-10 -35 131 3 c72 2 138 8 148
13 24 13 43 52 90 184 26 73 41 134 45 180 6 95 -11 120 -111 170 -87 43 -116
76 -124 141 -2 24 -7 44 -11 44 -3 0 -26 -30 -50 -65 -62 -93 -97 -107 -144
-59 -20 20 -27 38 -29 77 l-3 51 -31 -36z"/>
<path d="M3125 6454 c-11 -99 9 -151 73 -194 21 -14 22 -18 11 -49 -8 -23 -10
-68 -5 -142 l6 -108 -54 -15 c-64 -19 -73 -29 -91 -97 l-14 -52 85 7 c176 14
187 35 134 231 -38 141 -38 168 -1 206 33 32 75 38 144 18 63 -17 71 -49 69
-267 -1 -168 0 -181 16 -173 21 11 52 46 75 84 16 25 16 29 2 51 -16 24 -25
89 -44 309 -11 123 -20 141 -85 158 -30 8 -63 8 -124 0 -101 -14 -128 -5 -157
56 -11 23 -23 42 -27 43 -3 0 -10 -30 -13 -66z"/>
<path d="M3620 6495 c-7 -16 -14 -59 -17 -95 -3 -53 -1 -71 16 -97 19 -30 67
-53 113 -53 19 0 19 -16 3 -337 -3 -73 -2 -93 9 -93 23 0 66 40 87 81 l19 39
-21 29 c-18 25 -22 47 -27 143 -5 118 3 155 42 187 22 18 20 64 -3 85 -10 9
-47 21 -81 27 -83 13 -96 21 -113 71 l-15 43 -12 -30z"/>
<path d="M3473 5486 c-55 -83 -58 -124 -10 -187 47 -61 58 -85 66 -137 l6 -45
32 32 c36 36 58 100 48 140 -4 14 -25 51 -48 81 -23 30 -49 76 -57 101 l-16
47 -21 -32z"/>
<path d="M2861 5443 c-7 -16 -16 -54 -18 -86 l-6 -58 45 -42 44 -43 -18 -29
c-32 -53 -50 -150 -62 -340 l-5 -80 242 2 242 1 3 34 c1 18 9 76 17 129 18
119 19 261 1 312 -31 86 -85 113 -253 126 -134 10 -179 26 -196 72 -14 36 -20
36 -36 2z m238 -238 c54 -8 111 -19 125 -25 41 -15 56 -64 56 -184 l0 -105
-37 7 c-51 9 -228 9 -280 -1 l-43 -7 0 82 c0 81 20 190 40 229 13 23 14 23
139 4z"/>
<path d="M7650 2616 c-30 -18 -105 -69 -166 -113 -180 -129 -645 -378 -901
-483 l-133 -54 0 -63 c0 -55 2 -63 19 -63 45 0 342 145 707 345 251 138 364
198 364 192 0 -1 -22 -90 -49 -197 -68 -272 -69 -284 -29 -346 18 -27 96 -113
172 -192 76 -78 137 -143 135 -145 -2 -1 -29 -11 -59 -21 -50 -17 -288 -119
-350 -149 -20 -10 -26 -21 -28 -54 -4 -56 23 -85 70 -77 50 10 158 58 308 140
74 40 161 85 193 100 31 16 57 31 57 35 0 4 -26 30 -57 58 -60 52 -273 280
-318 341 -24 32 -26 41 -20 94 7 68 90 407 134 550 47 151 43 159 -49 102z"/>
<path d="M290 2603 c0 -11 16 -73 35 -139 40 -134 111 -450 121 -534 l6 -56
-63 -79 c-35 -43 -128 -144 -206 -224 -79 -80 -143 -146 -143 -147 0 -1 15 -4
33 -8 17 -3 120 -49 227 -101 193 -93 341 -157 348 -150 9 9 19 78 15 96 -4
14 -52 43 -171 100 -91 43 -183 84 -204 91 -21 6 -38 14 -38 18 0 3 19 24 41
45 23 22 85 91 138 154 53 63 109 129 124 147 l28 33 -42 208 c-22 114 -48
225 -56 246 -9 21 -14 40 -11 42 6 6 52 -19 208 -114 156 -95 442 -238 681
-340 91 -39 168 -71 172 -71 4 0 7 29 7 64 0 56 -3 65 -21 71 -50 16 -583 271
-710 340 -170 92 -454 267 -491 303 -26 24 -28 24 -28 5z"/>
<path d="M7090 1929 c-167 -102 -313 -166 -720 -314 -688 -249 -1106 -354
-1605 -399 -1075 -99 -2161 19 -3060 332 -272 94 -568 228 -792 357 l-63 36 0
-68 c0 -267 -91 -816 -176 -1057 -13 -38 -24 -72 -24 -76 0 -3 26 -14 58 -24
31 -10 107 -39 167 -66 208 -91 672 -257 920 -329 224 -65 628 -149 910 -190
915 -133 1782 -130 2600 9 629 107 1141 251 1576 443 203 90 342 143 435 167
l42 10 -18 49 c-21 53 -28 88 -94 451 -64 352 -76 445 -89 667 l-2 41 -65 -39z
m-46 -246 c24 -312 94 -721 140 -825 6 -13 -3 -19 -50 -33 -32 -9 -83 -29
-113 -45 -75 -37 -552 -217 -726 -273 -445 -144 -1031 -263 -1535 -311 -993
-96 -2126 3 -2995 261 -197 58 -605 208 -742 271 -70 33 -147 66 -171 73 -37
11 -43 16 -38 33 3 12 21 80 40 151 52 196 87 425 93 608 3 86 8 157 11 157 2
0 44 -23 93 -50 457 -262 1142 -470 1859 -564 385 -51 641 -67 1060 -67 774
-1 1436 87 2080 277 332 98 713 259 920 388 30 19 58 35 61 35 4 1 10 -38 13
-86z"/>
<path d="M1156 1438 c-3 -7 -9 -42 -16 -78 -11 -64 -93 -389 -105 -421 -5 -13
2 -17 34 -22 22 -3 80 -23 129 -46 49 -23 94 -41 100 -41 6 0 27 24 47 53 l35
52 -92 6 c-107 6 -138 14 -138 35 0 8 23 104 50 214 28 110 50 204 50 209 0 9
-70 51 -85 51 -3 0 -7 -6 -9 -12z"/>
<path d="M6731 1429 c-46 -10 -97 -27 -115 -36 -38 -22 -76 -94 -76 -143 1
-65 40 -93 180 -130 132 -35 153 -49 165 -110 5 -28 2 -42 -13 -60 -26 -32
-95 -30 -187 5 -37 14 -70 23 -73 20 -6 -6 15 -61 41 -104 20 -33 21 -33 76
-28 78 7 181 55 216 101 38 50 43 108 13 166 -26 51 -74 79 -168 100 -76 17
-124 43 -139 76 -11 24 -10 31 7 53 29 40 70 39 153 -4 39 -20 73 -34 76 -31
6 6 -53 140 -64 142 -4 1 -46 -6 -92 -17z"/>
<path d="M1502 1136 c-86 -308 -79 -367 48 -425 54 -24 139 -27 179 -6 76 39
131 143 180 339 l28 111 -26 12 c-54 25 -57 21 -74 -89 -24 -153 -51 -230 -97
-279 -38 -40 -41 -41 -91 -37 -62 6 -88 30 -96 85 -7 50 16 167 60 305 l34
106 -40 12 c-21 6 -44 13 -51 16 -7 2 -27 -52 -54 -150z"/>
<path d="M6183 1223 c-32 -16 -33 -19 -33 -77 0 -84 -16 -206 -49 -374 -20
-102 -24 -142 -16 -138 7 2 31 10 54 17 l41 12 1 56 c0 31 3 74 7 96 7 39 7
39 92 66 60 19 89 24 98 17 6 -6 29 -38 49 -72 20 -33 41 -64 47 -68 7 -5 102
25 113 36 2 1 -34 47 -80 103 -45 55 -122 154 -172 221 -49 67 -97 122 -105
121 -8 0 -30 -8 -47 -16z m101 -185 l48 -68 -25 -9 c-14 -5 -42 -13 -63 -17
l-37 -7 6 63 c4 35 7 77 7 93 0 36 1 35 64 -55z"/>
<path d="M5892 1113 c-73 -26 -244 -63 -295 -63 -32 0 -35 -3 -41 -37 -8 -53
-7 -101 2 -107 5 -3 19 9 31 25 24 32 120 84 132 71 14 -14 81 -284 103 -413
l6 -36 58 15 c31 9 58 16 60 18 2 1 -4 19 -13 40 -15 38 -105 385 -105 404 0
16 71 11 130 -10 30 -10 56 -17 58 -15 2 2 -12 32 -30 67 l-33 64 -63 -23z"/>
<path d="M2040 1120 c0 -5 18 -54 39 -108 22 -54 42 -114 46 -134 7 -34 6 -35
-82 -100 -48 -36 -105 -77 -127 -91 l-39 -26 37 -15 c72 -30 88 -24 143 54 48
67 85 85 108 54 8 -11 24 -60 35 -111 23 -101 14 -92 114 -109 46 -8 47 -19
-14 139 -22 60 -44 130 -47 156 l-5 46 108 75 108 74 -35 12 c-19 7 -40 13
-47 13 -8 1 -45 -29 -83 -65 -81 -78 -90 -77 -108 19 -7 34 -14 69 -17 78 -2
9 -29 23 -64 32 -70 20 -70 20 -70 7z"/>
<path d="M5371 1009 c-19 -8 -22 -14 -16 -37 9 -37 40 -254 55 -387 7 -60 15
-113 19 -117 3 -3 34 2 67 13 l61 19 -19 82 c-23 98 -68 371 -68 410 0 26 -3
28 -37 27 -21 0 -49 -5 -62 -10z"/>
<path d="M2730 987 c0 -10 -81 -434 -90 -472 -5 -22 -10 -43 -10 -46 0 -3 42
-9 93 -13 50 -4 132 -14 180 -22 102 -19 105 -17 138 56 17 38 17 41 2 36 -60
-23 -261 -41 -277 -25 -8 8 23 172 35 184 7 7 29 3 71 -12 l61 -23 -7 38 c-3
20 -6 43 -6 51 0 10 -8 12 -29 8 -16 -3 -45 -3 -64 0 -40 6 -39 -3 -15 121 11
59 4 58 104 21 28 -11 70 -36 94 -56 32 -28 41 -32 37 -17 -3 10 -11 43 -17
72 -14 59 -2 53 -155 76 -55 9 -110 19 -122 22 -13 4 -23 4 -23 1z"/>
<path d="M5005 963 c-38 -7 -200 -46 -202 -47 -1 -1 4 -40 12 -87 7 -47 17
-164 21 -260 l7 -175 59 9 c57 10 60 11 54 36 -3 14 -9 68 -12 119 l-7 92 45
0 c41 0 48 -3 73 -40 38 -55 114 -124 165 -150 57 -29 160 -40 160 -17 0 9 -9
21 -19 27 -49 26 -170 132 -210 184 l-44 57 31 62 c33 63 41 122 22 157 -17
31 -89 47 -155 33z m28 -74 c29 -15 37 -28 37 -59 0 -32 -28 -74 -70 -105 -56
-42 -67 -35 -75 43 -3 37 -8 79 -10 94 -3 21 0 28 18 31 43 8 79 7 100 -4z"/>
<path d="M3136 881 c-24 -47 -33 -81 -21 -81 3 0 24 9 46 21 22 11 63 23 91
26 l51 6 -7 -129 c-3 -71 -13 -176 -20 -234 -8 -58 -14 -106 -13 -107 1 -1 29
-3 62 -4 l60 -3 -3 30 c-3 30 13 284 24 382 8 70 38 68 134 -13 23 -19 44 -34
45 -33 1 2 -2 36 -8 76 l-10 72 -81 0 c-70 0 -212 17 -298 36 -24 6 -29 1 -52
-45z"/>
<path d="M4500 899 c-25 -4 -67 -8 -94 -8 l-49 -1 7 -77 c3 -42 6 -164 6 -271
l0 -195 43 7 c23 3 103 9 178 13 l136 6 22 50 c11 28 19 52 18 53 -2 2 -50
-10 -106 -26 -123 -35 -135 -36 -161 -10 -17 17 -20 33 -20 100 l0 80 43 -5
c23 -4 57 -8 75 -11 18 -3 36 -3 41 0 4 3 4 28 -2 56 -8 41 -13 50 -26 45 -9
-4 -40 -11 -69 -17 -67 -14 -72 -8 -72 86 l0 69 63 -7 c36 -3 85 -17 118 -34
31 -15 55 -23 54 -17 -2 5 -9 32 -15 58 -7 26 -21 52 -31 57 -20 11 -94 11
-159 -1z"/>
<path d="M3852 882 c-58 -3 -59 -8 -26 -73 7 -15 43 -101 78 -191 100 -253
123 -300 143 -296 29 5 57 59 107 201 25 75 69 186 96 248 l49 112 -56 -7
c-31 -4 -59 -8 -61 -10 -2 -3 -12 -40 -23 -83 -30 -119 -80 -264 -89 -258 -13
8 -85 164 -121 260 -18 50 -35 92 -38 95 -3 3 -30 4 -59 2z"/>
</g>
</svg>
