<?xml version="1.0" standalone="no"?>
<!DOCTYPE svg PUBLIC "-//W3C//DTD SVG 20010904//EN"
 "http://www.w3.org/TR/2001/REC-SVG-20010904/DTD/svg10.dtd">
<svg version="1.0" xmlns="http://www.w3.org/2000/svg"
 width="1000.000000pt" height="363.000000pt" viewBox="0 0 1000.000000 363.000000"
 preserveAspectRatio="xMidYMid meet">

<g transform="translate(0.000000,363.000000) scale(0.100000,-0.100000)"
fill="#000000" stroke="none">
<path d="M5685 3624 c-180 -27 -347 -87 -460 -164 -22 -15 -46 -29 -52 -31
-29 -9 -217 -187 -263 -249 -47 -63 -130 -230 -161 -323 -27 -81 -32 -114 -41
-282 -14 -235 3 -1653 20 -1700 6 -16 15 -48 22 -70 6 -22 15 -49 20 -60 5
-11 19 -46 30 -77 12 -32 26 -58 31 -58 5 0 9 -7 9 -16 0 -34 97 -164 189
-254 165 -162 376 -273 593 -315 96 -18 302 -21 404 -5 38 6 98 20 134 31 77
24 260 109 260 121 0 4 5 8 12 8 39 0 230 166 320 280 76 96 168 313 190 450
16 97 23 1598 8 1715 -24 181 -56 284 -137 440 -26 49 -117 166 -182 233 -65
66 -177 152 -198 152 -7 0 -13 4 -13 10 0 5 -25 21 -55 35 -30 14 -79 36 -109
50 -30 14 -61 25 -68 25 -8 0 -18 4 -24 9 -23 22 -165 43 -304 46 -80 2 -158
1 -175 -1z m327 -94 c193 -28 424 -149 567 -299 153 -158 222 -286 277 -511
18 -70 19 -131 19 -915 0 -635 -3 -850 -12 -880 -7 -22 -19 -69 -28 -104 -17
-73 -94 -234 -137 -289 -66 -84 -79 -99 -126 -148 -72 -75 -275 -204 -320
-204 -7 0 -12 -4 -12 -9 0 -12 -113 -46 -219 -65 -82 -16 -274 -22 -305 -10
-8 3 -18 22 -21 42 -3 21 -10 60 -15 87 -6 28 -28 178 -50 335 -21 157 -41
292 -44 300 -3 8 -19 119 -36 245 -17 127 -33 240 -35 252 -4 18 2 23 48 34
98 23 206 89 233 141 8 15 28 44 45 63 30 34 34 35 100 35 l69 0 0 190 0 190
-61 0 -61 0 4 100 c2 54 6 101 9 105 11 10 74 -18 119 -54 25 -19 155 -146
290 -281 255 -255 305 -299 321 -283 11 11 -68 147 -127 220 -19 23 -34 44
-34 47 0 3 -31 54 -68 113 -37 59 -79 128 -92 153 -14 25 -34 59 -46 75 -25
36 -136 261 -160 325 -96 259 -93 248 -102 475 -9 249 -19 281 -98 336 -47 33
-53 34 -139 34 -87 0 -94 -2 -175 -43 -47 -23 -108 -59 -136 -80 -159 -116
-221 -168 -212 -177 3 -3 59 12 124 34 140 46 204 59 204 40 0 -15 -35 -128
-56 -179 -34 -84 -45 -249 -23 -352 13 -59 57 -152 87 -183 49 -51 170 -145
187 -145 3 0 13 -7 21 -15 12 -11 14 -40 12 -137 l-3 -123 -501 -3 -501 -2 -7
31 c-3 17 -6 156 -6 309 0 237 3 292 20 371 25 125 80 262 142 356 53 81 179
214 257 270 80 57 238 132 323 154 46 11 97 24 113 29 42 11 296 12 377 0z
m-174 -246 c17 -8 42 -30 54 -47 21 -30 23 -46 30 -227 4 -113 13 -221 21
-257 20 -83 71 -230 102 -291 14 -28 25 -52 25 -55 0 -9 102 -215 135 -272 33
-57 35 -59 -82 47 -70 63 -127 97 -233 140 -41 16 -77 33 -80 37 -3 4 -38 29
-78 56 -60 40 -80 60 -112 114 -54 92 -67 164 -53 288 6 54 18 112 27 128 9
17 16 36 16 43 0 7 16 60 36 118 19 58 33 111 31 117 -2 7 -20 10 -45 8 -23
-1 -42 0 -42 3 0 8 86 46 104 46 8 0 18 5 21 10 10 15 88 12 123 -6z m-50
-1361 l152 -6 0 -104 0 -103 -575 0 -575 0 0 110 0 110 423 0 c233 0 492 -3
575 -7z m-38 -312 c0 -16 -26 -43 -86 -90 -67 -53 -134 -61 -523 -61 l-348 0
-7 46 c-9 69 -7 99 6 112 9 9 130 12 485 12 458 0 473 -1 473 -19z m-323 -244
c1 -1 20 -126 43 -277 51 -337 113 -741 135 -874 8 -54 14 -101 12 -103 -12
-11 -182 49 -247 87 -8 5 -33 18 -55 30 -123 62 -201 127 -312 262 -58 71 -73
91 -73 102 0 5 -7 17 -15 25 -17 20 -84 189 -97 246 -24 104 -27 143 -27 320
l-1 190 317 -3 c175 -2 319 -4 320 -5z"/>
<path d="M6010 891 l0 -511 60 0 60 0 0 244 0 244 153 4 c173 5 205 15 261 80
81 95 81 272 -1 368 -62 72 -71 74 -315 78 l-218 4 0 -511z m435 346 c42 -41
45 -47 45 -96 0 -76 -33 -127 -96 -152 -14 -5 -79 -9 -145 -9 l-119 0 0 150 0
150 135 0 135 0 45 -43z"/>
<path d="M152 1966 c-93 -43 -135 -109 -147 -231 -12 -127 28 -225 107 -263
24 -12 64 -27 90 -33 48 -13 84 -9 186 23 l32 10 0 114 0 114 -60 0 -60 0 0
-94 c0 -102 -2 -105 -67 -106 -38 0 -90 65 -104 128 -31 151 29 282 130 282
37 0 49 -5 77 -35 18 -19 37 -35 41 -35 11 0 33 79 27 95 -15 38 -190 59 -252
31z"/>
<path d="M660 1713 l0 -263 55 0 55 0 0 263 0 262 -55 0 -55 0 0 -262z"/>
<path d="M1050 1966 c-1 -20 -30 -259 -45 -366 -21 -155 -22 -150 24 -150 l39
0 7 136 c8 159 14 160 64 19 45 -126 60 -155 81 -155 19 0 28 18 90 184 44
119 49 113 57 -61 l6 -123 65 0 c52 0 63 3 59 14 -3 8 -16 128 -28 266 -19
204 -25 250 -37 245 -7 -3 -24 -5 -37 -5 -24 0 -26 -4 -90 -178 -15 -39 -35
-89 -45 -109 l-17 -36 -13 39 c-7 21 -22 58 -32 81 -11 23 -32 77 -47 120 -27
75 -30 78 -65 84 -23 4 -36 2 -36 -5z"/>
<path d="M2020 1815 l0 -160 -19 30 c-10 17 -46 66 -80 110 -34 44 -76 101
-93 128 -29 44 -34 47 -74 47 l-44 0 0 -260 0 -260 24 0 c13 0 31 -3 40 -6 14
-5 16 14 18 156 l3 161 55 -72 c30 -40 62 -82 70 -94 93 -139 99 -145 140
-145 l40 0 0 263 0 262 -40 0 -40 0 0 -160z"/>
<path d="M2462 1958 c-10 -21 -171 -512 -168 -514 1 0 20 1 43 4 41 4 43 6 53
46 29 110 26 106 85 106 62 0 66 -4 85 -92 l13 -58 53 0 c29 0 59 -2 66 -5 11
-4 5 24 -19 102 -19 59 -38 117 -43 128 -5 11 -25 74 -45 140 -47 155 -52 165
-85 165 -18 0 -30 -8 -38 -22z m38 -241 c14 -45 12 -49 -28 -45 l-30 3 16 48
c17 52 23 51 42 -6z"/>
<path d="M3493 1973 l-53 -4 0 -260 0 -259 55 0 55 0 0 265 c0 146 -1 264 -2
263 -2 -1 -27 -3 -55 -5z"/>
<path d="M4296 1972 c-8 -13 -126 -373 -126 -385 0 -7 -6 -24 -14 -38 -7 -14
-16 -37 -19 -51 -4 -14 -9 -32 -12 -40 -4 -10 5 -12 39 -10 44 4 45 5 51 45 4
23 13 57 21 75 12 31 15 32 68 32 60 0 57 4 86 -107 l11 -43 54 0 c29 0 60 -2
68 -6 12 -4 11 6 -5 53 -10 32 -23 67 -27 78 -5 11 -37 107 -71 213 -61 189
-63 192 -91 192 -15 0 -30 -3 -33 -8z m41 -298 c-3 -3 -18 -4 -34 -2 l-30 3
15 54 15 54 20 -52 c11 -28 17 -54 14 -57z"/>
<path d="M2892 1930 l0 -40 89 0 c49 0 89 -3 89 -6 0 -3 -45 -96 -100 -205
-55 -110 -100 -207 -100 -215 0 -12 30 -14 178 -14 l179 0 -1 45 -1 45 -99 -7
c-83 -5 -98 -4 -93 8 34 81 106 233 147 309 27 52 50 100 50 107 0 10 -37 13
-169 13 l-170 0 1 -40z"/>
<path d="M3810 1722 c0 -249 -6 -305 -35 -326 -12 -8 -14 -20 -10 -39 6 -23
11 -26 34 -20 39 9 77 39 103 80 22 36 23 48 26 295 l4 258 -61 0 -61 0 0
-248z"/>
<path d="M7215 879 c-57 -13 -119 -72 -146 -139 -32 -81 -32 -208 0 -273 44
-91 138 -136 244 -116 133 24 200 111 200 259 1 148 -62 245 -172 269 -59 12
-70 12 -126 0z m122 -81 c8 -6 23 -32 35 -57 17 -38 20 -59 16 -135 -4 -95
-19 -137 -60 -176 -58 -54 -141 1 -158 106 -15 91 4 208 39 244 39 40 92 48
128 18z"/>
<path d="M8686 879 c4 -6 -29 -115 -47 -154 -4 -11 -22 -65 -39 -120 -17 -55
-35 -109 -41 -120 -10 -22 -39 -115 -39 -127 0 -5 17 -8 38 -8 l39 0 20 73 19
72 61 3 61 3 19 -73 20 -73 66 -3 c37 -2 67 -1 67 1 0 7 -21 71 -31 92 -4 11
-25 72 -44 135 -20 63 -40 124 -45 135 -5 11 -19 52 -30 92 -21 71 -21 71 -60
75 -21 2 -37 0 -34 -3z m35 -264 l17 -45 -35 0 c-32 0 -35 2 -29 23 4 12 9 35
13 50 7 34 12 29 34 -28z"/>
<path d="M7730 613 l0 -263 123 0 124 0 1 46 0 46 -69 -6 -69 -7 0 219 0 220
-55 4 -55 3 0 -262z"/>
<path d="M9873 873 l-123 -4 0 -259 0 -260 125 0 125 0 0 46 0 46 -65 -7 -65
-7 0 82 0 82 63 -7 62 -7 -3 46 -4 45 -59 -6 -59 -6 0 69 0 69 65 -3 65 -4 0
46 c0 25 -1 45 -2 44 -2 -1 -58 -4 -125 -5z"/>
<path d="M8208 613 c-5 -258 -12 -313 -42 -313 -20 0 -5 -54 16 -58 32 -6 98
47 119 94 17 41 19 70 19 290 l0 244 -54 0 -54 0 -4 -257z"/>
<path d="M9122 613 l3 -258 38 -3 37 -3 0 161 0 162 33 -40 c17 -23 72 -95
122 -161 82 -112 92 -121 122 -121 l33 0 0 260 0 260 -35 0 -35 0 0 -152 0
-153 -26 30 c-14 17 -40 50 -57 75 -17 24 -37 51 -43 60 -7 8 -34 43 -59 78
-45 60 -48 62 -91 62 l-44 0 2 -257z"/>
</g>
</svg>
