<?xml version="1.0" standalone="no"?>
<!DOCTYPE svg PUBLIC "-//W3C//DTD SVG 20010904//EN"
 "http://www.w3.org/TR/2001/REC-SVG-20010904/DTD/svg10.dtd">
<svg version="1.0" xmlns="http://www.w3.org/2000/svg"
 width="640.000000pt" height="304.000000pt" viewBox="0 0 640.000000 304.000000"
 preserveAspectRatio="xMidYMid meet">

<g transform="translate(0.000000,304.000000) scale(0.100000,-0.100000)"
fill="#000000" stroke="none">
<path d="M1800 2143 c0 -91 2 -100 25 -122 24 -22 25 -22 25 -3 0 11 -7 25
-15 32 -11 9 -15 35 -15 101 0 53 -4 89 -10 89 -6 0 -10 -39 -10 -97z"/>
<path d="M2420 1500 c0 -487 3 -740 10 -740 7 0 10 253 10 740 0 487 -3 740
-10 740 -7 0 -10 -253 -10 -740z"/>
<path d="M1687 1899 c-18 -72 -1 -77 20 -6 l14 47 94 0 c102 0 96 4 110 -67 4
-18 12 -33 19 -33 10 0 9 14 -3 60 l-16 60 -111 0 -112 0 -15 -61z"/>
<path d="M1279 1888 c0 -2 -15 -56 -33 -120 l-33 -118 179 0 c112 0 178 4 178
10 0 6 -62 10 -166 10 -129 0 -165 3 -162 13 3 6 16 51 29 100 l24 87 167 0
c105 0 168 4 168 10 0 8 -349 16 -351 8z"/>
<path d="M2000 1880 c0 -6 37 -10 90 -10 53 0 90 4 90 10 0 6 -37 10 -90 10
-53 0 -90 -4 -90 -10z"/>
<path d="M2690 1795 c0 -110 13 -145 60 -165 47 -20 120 -8 147 25 21 24 23
36 23 131 l0 104 -25 0 c-25 0 -25 -1 -25 -79 0 -44 -4 -91 -10 -105 -11 -30
-51 -43 -86 -27 -23 10 -24 14 -24 111 l0 100 -30 0 -30 0 0 -95z"/>
<path d="M3010 1754 l0 -135 28 3 c26 3 27 5 32 82 l5 79 74 -81 c40 -45 79
-82 87 -82 11 0 14 26 14 135 l0 135 -25 0 c-24 0 -25 -2 -25 -75 0 -41 -4
-75 -8 -75 -5 0 -39 34 -76 75 -40 44 -75 75 -87 75 -18 0 -19 -8 -19 -136z"/>
<path d="M3350 1755 l0 -135 25 0 25 0 0 135 0 135 -25 0 -25 0 0 -135z"/>
<path d="M3470 1883 c0 -4 26 -66 57 -136 73 -163 77 -163 147 -7 74 162 71
150 32 150 -32 0 -33 -2 -65 -86 -18 -47 -37 -82 -41 -78 -5 5 -22 43 -38 84
-27 69 -32 75 -61 78 -17 2 -31 0 -31 -5z"/>
<path d="M3802 1758 l3 -133 88 -3 87 -3 0 26 c0 24 -2 25 -60 25 l-60 0 0 35
0 35 55 0 c52 0 55 1 55 25 0 24 -3 25 -56 25 -54 0 -55 0 -52 28 3 26 6 27
61 30 49 3 57 6 57 22 0 18 -7 20 -90 20 l-91 0 3 -132z"/>
<path d="M4070 1755 l0 -135 25 0 c23 0 25 4 25 44 0 25 5 48 10 51 6 4 32
-16 58 -44 27 -28 56 -51 65 -51 26 0 21 40 -9 71 l-25 27 25 25 c26 26 33 66
20 102 -11 28 -60 45 -129 45 l-65 0 0 -135z m137 68 c20 -27 -6 -58 -48 -58
-30 0 -34 3 -37 28 -5 39 15 60 47 52 14 -3 32 -13 38 -22z"/>
<path d="M4350 1870 c0 -18 7 -20 54 -20 30 0 57 -4 60 -9 3 -4 -21 -47 -54
-94 -33 -47 -60 -95 -60 -107 0 -20 4 -21 103 -18 97 3 102 4 105 26 3 21 0
22 -63 22 -79 0 -79 -5 -1 108 31 44 56 88 56 96 0 14 -16 16 -100 16 -93 0
-100 -1 -100 -20z"/>
<path d="M4709 1869 c-9 -18 -67 -147 -106 -236 -3 -9 6 -13 31 -13 30 0 37 4
42 25 6 23 11 25 65 25 54 0 59 -2 65 -25 5 -19 13 -25 35 -25 17 0 29 5 28
13 0 6 -24 66 -52 132 -42 95 -57 121 -74 123 -14 2 -26 -5 -34 -19z m49 -102
c7 -18 12 -39 12 -45 0 -13 -56 -17 -63 -4 -6 9 23 82 32 82 4 0 12 -15 19
-33z"/>
<path d="M1767 1805 c-21 -15 -37 -34 -37 -45 0 -16 -7 -20 -30 -20 -16 0 -30
-4 -30 -10 0 -5 18 -10 40 -10 36 0 40 3 40 24 0 27 33 56 63 56 30 0 67 -30
67 -56 0 -21 5 -24 40 -24 22 0 40 5 40 10 0 6 -13 10 -29 10 -23 0 -30 5 -33
22 -2 19 -66 67 -88 68 -3 0 -22 -11 -43 -25z"/>
<path d="M1610 1441 c0 -216 4 -342 10 -346 7 -4 10 112 10 339 0 224 -4 346
-10 346 -6 0 -10 -120 -10 -339z"/>
<path d="M2000 1440 c0 -220 4 -340 10 -340 6 0 10 120 10 340 0 220 -4 340
-10 340 -6 0 -10 -120 -10 -340z"/>
<path d="M1795 1750 c-8 -14 3 -30 21 -30 8 0 14 9 14 20 0 21 -24 28 -35 10z"/>
<path d="M1760 1680 c-8 -5 -32 -10 -52 -10 -21 0 -38 -5 -38 -11 0 -7 17 -9
53 -5 28 4 70 7 92 7 22 0 64 -3 93 -7 31 -3 52 -2 52 4 0 9 -34 15 -145 28
-22 3 -47 0 -55 -6z"/>
<path d="M2060 1660 c0 -6 27 -10 60 -10 33 0 60 4 60 10 0 6 -27 10 -60 10
-33 0 -60 -4 -60 -10z"/>
<path d="M1781 1611 c-14 -25 -14 -71 -1 -71 6 0 10 9 10 19 0 30 11 51 26 51
9 0 14 -12 14 -35 0 -19 5 -35 11 -35 6 0 9 17 7 43 -3 37 -6 42 -30 45 -18 2
-30 -3 -37 -17z"/>
<path d="M1210 1360 l0 -250 183 2 182 2 -170 6 -170 5 0 120 0 120 168 3
c100 1 167 6 167 12 0 6 -66 10 -170 10 l-170 0 0 110 c0 67 -4 110 -10 110
-6 0 -10 -90 -10 -250z"/>
<path d="M1270 1575 c0 -24 5 -35 15 -35 10 0 15 11 15 35 0 24 -5 35 -15 35
-10 0 -15 -11 -15 -35z"/>
<path d="M1360 1575 c0 -24 5 -35 15 -35 10 0 15 11 15 35 0 24 -5 35 -15 35
-10 0 -15 -11 -15 -35z"/>
<path d="M1450 1575 c0 -24 5 -35 15 -35 10 0 15 11 15 35 0 24 -5 35 -15 35
-10 0 -15 -11 -15 -35z"/>
<path d="M1540 1575 c0 -24 5 -35 15 -35 10 0 15 11 15 35 0 24 -5 35 -15 35
-10 0 -15 -11 -15 -35z"/>
<path d="M1690 1575 c0 -24 5 -35 15 -35 10 0 15 11 15 35 0 24 -5 35 -15 35
-10 0 -15 -11 -15 -35z"/>
<path d="M1910 1575 c0 -24 5 -35 15 -35 10 0 15 11 15 35 0 24 -5 35 -15 35
-10 0 -15 -11 -15 -35z"/>
<path d="M2060 1575 c0 -24 5 -35 15 -35 10 0 15 11 15 35 0 24 -5 35 -15 35
-10 0 -15 -11 -15 -35z"/>
<path d="M2150 1575 c0 -24 5 -35 15 -35 10 0 15 11 15 35 0 24 -5 35 -15 35
-10 0 -15 -11 -15 -35z"/>
<path d="M1277 1493 c-14 -13 -7 -63 8 -63 10 0 15 11 15 35 0 33 -8 43 -23
28z"/>
<path d="M1366 1493 c-13 -13 -6 -63 9 -63 10 0 15 10 15 29 0 30 -12 46 -24
34z"/>
<path d="M1456 1493 c-13 -13 -6 -63 9 -63 10 0 15 10 15 29 0 30 -12 46 -24
34z"/>
<path d="M1540 1466 c0 -26 4 -36 16 -36 11 0 14 8 12 32 -4 46 -28 49 -28 4z"/>
<path d="M1696 1493 c-13 -13 -6 -63 9 -63 10 0 15 10 15 29 0 30 -12 46 -24
34z"/>
<path d="M1786 1484 c-9 -9 -16 -32 -16 -55 l0 -39 -50 0 c-27 0 -50 -4 -50
-10 0 -6 55 -10 145 -10 90 0 145 4 145 10 0 6 -25 10 -55 10 l-55 0 0 43 c0
62 -30 86 -64 51z m42 -52 c3 -37 1 -42 -17 -42 -16 0 -21 6 -21 29 0 71 33
81 38 13z"/>
<path d="M1916 1493 c-13 -13 -6 -63 9 -63 10 0 15 10 15 29 0 30 -12 46 -24
34z"/>
<path d="M2066 1493 c-13 -13 -6 -63 9 -63 10 0 15 10 15 29 0 30 -12 46 -24
34z"/>
<path d="M2156 1493 c-13 -13 -6 -63 9 -63 10 0 15 10 15 29 0 30 -12 46 -24
34z"/>
<path d="M2065 1380 c-4 -6 17 -10 54 -10 34 0 61 4 61 10 0 6 -24 10 -54 10
-30 0 -58 -4 -61 -10z"/>
<path d="M2684 1338 c89 -208 100 -228 122 -228 18 0 30 19 74 118 28 64 54
123 57 130 4 8 -6 12 -29 12 -31 0 -36 -4 -46 -37 -7 -21 -22 -60 -35 -88
l-24 -50 -33 88 c-33 85 -34 87 -67 87 l-33 0 14 -32z"/>
<path d="M3090 1240 l0 -130 85 0 c78 0 85 2 85 20 0 18 -7 20 -55 20 l-55 0
0 110 0 110 -30 0 -30 0 0 -130z"/>
<path d="M3270 1351 c0 -15 8 -21 33 -23 l32 -3 3 -124 c1 -69 -2 -138 -7
-153 -10 -29 -10 -29 22 -26 41 4 44 19 46 206 l1 142 -65 0 c-58 0 -65 -2
-65 -19z"/>
<path d="M3490 1269 c0 -55 5 -109 10 -120 30 -55 140 -64 189 -15 24 25 26
34 29 131 l4 105 -31 0 -31 0 0 -94 c0 -87 -2 -96 -22 -110 -30 -21 -54 -20
-78 4 -17 17 -20 33 -20 110 0 89 0 90 -25 90 l-25 0 0 -101z"/>
<path d="M3810 1240 l0 -130 80 0 c67 0 83 3 100 20 26 26 26 70 0 103 -13 16
-16 28 -10 32 17 10 11 71 -8 88 -14 13 -38 17 -90 17 l-72 0 0 -130z m124 67
c9 -15 7 -21 -8 -33 -36 -26 -56 -18 -56 22 0 32 2 35 26 32 15 -2 32 -11 38
-21z m0 -93 c19 -7 21 -35 4 -52 -7 -7 -25 -12 -40 -12 -25 0 -28 3 -28 35 0
30 3 35 24 35 13 0 31 -3 40 -6z"/>
<path d="M4090 1240 l0 -130 85 0 c78 0 85 2 85 20 0 18 -7 20 -55 20 l-55 0
0 110 0 110 -30 0 -30 0 0 -130z"/>
<path d="M4270 1351 c0 -15 8 -21 33 -23 l32 -3 0 -130 c0 -71 -4 -140 -8
-153 -8 -22 -7 -23 24 -20 31 3 34 7 41 43 4 22 7 100 7 173 l1 132 -65 0
c-58 0 -65 -2 -65 -19z"/>
<path d="M4543 1298 c-17 -40 -43 -99 -57 -130 l-26 -58 34 0 c26 0 36 5 41
20 5 17 15 20 65 20 49 0 58 -3 63 -20 4 -15 14 -20 36 -20 17 0 31 2 31 4 0
5 -52 129 -84 199 -20 45 -30 57 -49 57 -19 0 -28 -13 -54 -72z m72 -44 c21
-51 20 -54 -21 -54 -30 0 -35 3 -29 18 4 9 12 29 17 45 5 15 12 27 14 27 2 0
11 -16 19 -36z"/>
<path d="M4800 1240 l0 -130 25 0 c24 0 25 2 25 68 0 38 3 72 7 75 3 4 37 -27
76 -68 39 -42 77 -75 88 -75 18 0 19 9 19 130 l0 130 -30 0 -30 0 0 -77 -1
-78 -72 78 c-102 110 -107 108 -107 -53z"/>
<path d="M5130 1240 l0 -130 30 0 30 0 0 130 0 130 -30 0 -30 0 0 -130z"/>
<path d="M1283 1323 c-19 -7 -17 -63 2 -63 10 0 15 11 15 35 0 19 -1 35 -2 34
-2 0 -9 -3 -15 -6z"/>
<path d="M1360 1296 c0 -26 4 -36 16 -36 11 0 14 8 12 32 -4 46 -28 49 -28 4z"/>
<path d="M1463 1323 c-19 -7 -17 -63 2 -63 10 0 15 11 15 35 0 19 -1 35 -2 34
-2 0 -9 -3 -15 -6z"/>
<path d="M1540 1295 c0 -24 5 -35 15 -35 10 0 15 10 15 29 0 16 -6 31 -15 35
-12 4 -15 -3 -15 -29z"/>
<path d="M1781 1311 c-19 -19 -21 -33 -21 -126 0 -140 18 -138 22 3 3 104 4
107 27 110 13 2 28 -2 32 -10 5 -7 9 -57 9 -110 0 -59 4 -98 10 -98 15 0 13
202 -2 222 -22 28 -55 31 -77 9z"/>
<path d="M2066 1323 c-13 -13 -6 -63 9 -63 10 0 15 10 15 29 0 30 -12 46 -24
34z"/>
<path d="M2150 1296 c0 -26 4 -36 16 -36 11 0 14 8 12 32 -4 46 -28 49 -28 4z"/>
<path d="M1670 1311 c0 -5 7 -11 15 -15 12 -4 15 -26 15 -111 0 -63 4 -105 10
-105 15 0 13 213 -2 228 -14 14 -38 16 -38 3z"/>
<path d="M1922 1308 c-15 -15 -17 -228 -2 -228 6 0 10 41 10 102 0 80 3 105
17 120 13 15 14 18 2 18 -8 0 -20 -5 -27 -12z"/>
<path d="M1274 1205 c-8 -19 2 -45 16 -45 5 0 10 14 10 30 0 31 -16 41 -26 15z"/>
<path d="M1360 1190 c0 -20 5 -30 15 -30 10 0 15 10 15 30 0 20 -5 30 -15 30
-10 0 -15 -10 -15 -30z"/>
<path d="M1450 1190 c0 -20 5 -30 15 -30 10 0 15 10 15 30 0 20 -5 30 -15 30
-10 0 -15 -10 -15 -30z"/>
<path d="M1540 1190 c0 -20 5 -30 15 -30 10 0 15 10 15 30 0 20 -5 30 -15 30
-10 0 -15 -10 -15 -30z"/>
<path d="M2064 1205 c-8 -19 2 -45 16 -45 5 0 10 14 10 30 0 31 -16 41 -26 15z"/>
<path d="M2150 1189 c0 -38 24 -35 28 4 2 19 -1 27 -12 27 -11 0 -16 -10 -16
-31z"/>
<path d="M2088 1113 c17 -2 47 -2 65 0 17 2 3 4 -33 4 -36 0 -50 -2 -32 -4z"/>
<path d="M1670 1048 c0 -24 21 -28 145 -28 122 0 145 4 145 26 0 11 -4 12 -19
4 -28 -14 -244 -13 -259 2 -9 9 -12 8 -12 -4z"/>
</g>
</svg>
